<!--?xml version="1.0" standalone="no"?-->
              <svg id="sw-js-blob-svg" viewBox="0 0 100 100" xmlns="http://www.w3.org/2000/svg" version="1.1">
                    <defs> 
                        <linearGradient id="sw-gradient" x1="0" x2="1" y1="1" y2="0">
                            <stop id="stop1" stop-color="rgba(255, 201.293, 0, 1)" offset="0%"></stop>
                            <stop id="stop2" stop-color="rgba(255, 183.151, 0, 1)" offset="100%"></stop>
                        </linearGradient>
                    </defs>
                <path fill="url(#sw-gradient)" d="M17.6,-30.2C23,-27.3,27.7,-23,29.6,-17.8C31.6,-12.5,30.7,-6.2,31.3,0.4C32,7,34.2,14,33.4,21.1C32.5,28.3,28.6,35.5,22.5,38.8C16.4,42.1,8.2,41.4,0.1,41.3C-8.1,41.2,-16.2,41.6,-21.1,37.6C-26,33.7,-27.6,25.3,-30.8,18.3C-33.9,11.3,-38.5,5.6,-39.4,-0.5C-40.3,-6.7,-37.5,-13.4,-34.1,-19.9C-30.7,-26.4,-26.7,-32.8,-20.9,-35.4C-15.1,-38.1,-7.5,-36.9,-0.7,-35.7C6.1,-34.4,12.2,-33,17.6,-30.2Z" width="100%" height="100%" transform="translate(50 50)" stroke-width="0" style="transition: all 0.3s ease 0s;" stroke="url(#sw-gradient)"></path>
              </svg>